<?xml version="1.0" encoding="UTF-8"?>
<svg version="1.1" xmlns="http://www.w3.org/2000/svg" width="2560" height="1440">
<path d="M0 0 C0.85306909 -0.00140232 1.70613818 -0.00280463 2.58505785 -0.00424945 C5.43857638 -0.00772429 8.29204052 -0.00409508 11.14555824 -0.00049198 C13.22288807 -0.00153539 15.30021772 -0.00301684 17.37754697 -0.00489634 C23.1035342 -0.00879925 28.82950463 -0.00645574 34.55549161 -0.00311839 C40.77853973 -0.00058684 47.00158523 -0.00383958 53.22463298 -0.00636172 C64.13757781 -0.00997859 75.05051683 -0.00989439 85.96346176 -0.00731456 C97.67331806 -0.00456322 109.38317147 -0.00398304 121.09302795 -0.0060519 C122.20248081 -0.00624566 122.20248081 -0.00624566 123.33434686 -0.00644333 C126.34679913 -0.0069766 129.35925139 -0.00752531 132.37170366 -0.00809361 C160.43395732 -0.01338375 188.49620903 -0.0137412 216.55846298 -0.01094615 C217.39013013 -0.01086336 218.22179728 -0.01078056 219.07866646 -0.01069526 C220.32817106 -0.01057086 220.32817106 -0.01057086 221.60291816 -0.01044396 C246.97637261 -0.00792124 272.34982625 -0.00726916 297.72328079 -0.0084666 C299.42211024 -0.00854408 301.12093969 -0.00862124 302.81976915 -0.00869807 C309.64673674 -0.00900854 316.47370434 -0.00932721 323.30067193 -0.00965784 C342.38649864 -0.01057491 361.47232535 -0.01114547 380.55815208 -0.01144397 C381.42734122 -0.01145762 382.29653036 -0.01147126 383.19205856 -0.01148532 C410.89446934 -0.01189469 438.59687984 -0.01076731 466.29929054 -0.00859439 C467.19795426 -0.00852414 468.09661797 -0.0084539 469.02251393 -0.00838152 C483.61626025 -0.00723657 498.21000656 -0.0060171 512.80375287 -0.00479134 C570.64906224 0.00006203 628.49436929 -0.00015766 686.33967865 -0.00502193 C700.90938651 -0.00624316 715.47909438 -0.00745422 730.04880226 -0.00859439 C731.39453074 -0.00870007 731.39453074 -0.00870007 732.76744566 -0.00880787 C760.42831268 -0.01096502 788.08917951 -0.01187814 815.75004661 -0.01144397 C816.61878655 -0.01143039 817.48752649 -0.0114168 818.38259188 -0.01140281 C837.45580389 -0.01109028 856.52901588 -0.01045655 875.60222787 -0.00953347 C882.42751691 -0.00920434 889.25280596 -0.00889125 896.078095 -0.00858276 C897.77601998 -0.00850537 899.47394496 -0.00842664 901.17186994 -0.00834656 C926.52791837 -0.00715402 951.8839659 -0.00816742 977.24001421 -0.01069526 C978.07052223 -0.01077805 978.90103024 -0.01086085 979.75670516 -0.01094615 C981.00016468 -0.01107018 981.00016468 -0.01107018 982.26874459 -0.01119671 C1010.26556545 -0.01395857 1038.26238399 -0.01293304 1066.25920452 -0.00766541 C1069.26968961 -0.00711309 1072.28017469 -0.00657638 1075.29065979 -0.0060519 C1076.0294623 -0.00592169 1076.76826481 -0.00579148 1077.52945528 -0.00565733 C1089.19875147 -0.00368969 1100.86804476 -0.00505312 1112.5373407 -0.0078209 C1124.02923284 -0.01047494 1135.52111856 -0.00943809 1147.01301039 -0.00480682 C1153.15313737 -0.00243287 1159.2932534 -0.00160463 1165.43338002 -0.0052128 C1171.03162532 -0.00846887 1176.62985007 -0.0070339 1182.2280939 -0.00203214 C1184.2288252 -0.00103422 1186.22955825 -0.00166632 1188.23028816 -0.00423808 C1198.6729575 -0.01669662 1209.09030582 0.13742051 1219.52466273 0.57632947 C1220.47747174 0.61583154 1221.43028075 0.65533362 1222.41196276 0.69603272 C1229.43736161 1.02022891 1236.22020206 1.72751123 1243.1116513 3.18784916 C1244.15216644 3.4026392 1245.19268157 3.61742924 1246.26472747 3.83872807 C1255.23215717 5.85101344 1262.40369958 9.23897492 1270.1116513 14.12534916 C1272.23502106 15.31576174 1274.35995329 16.50339282 1276.4866513 17.68784916 C1291.62060275 26.68750562 1304.55959842 39.33417481 1312.88899505 54.89488041 C1314.09396375 57.0930821 1315.38846886 59.20002594 1316.7366513 61.31284916 C1322.27059456 70.13257123 1324.67446198 78.85971116 1326.1116513 89.12534916 C1326.4416513 89.95034916 1326.7716513 90.77534916 1327.1116513 91.62534916 C1329.2387972 96.94321392 1329.23758317 102.6189344 1329.24587238 108.28035843 C1329.24822461 108.96890311 1329.25057684 109.65744778 1329.25300035 110.36685744 C1329.2596415 112.66724544 1329.25923361 114.96757632 1329.25882232 117.26797307 C1329.26212406 118.93697847 1329.26585028 120.60598308 1329.2699638 122.27498668 C1329.27995787 126.85695737 1329.28369646 131.43891496 1329.28635311 136.020895 C1329.29026423 140.96546295 1329.29984242 145.9100206 1329.30856597 150.85458195 C1329.32831418 162.79851505 1329.33839741 174.74244897 1329.34729376 186.6863943 C1329.35168193 192.32075344 1329.35704761 197.95511163 1329.36228263 203.58947003 C1329.3792981 222.33941495 1329.39378785 241.08935931 1329.40103137 259.83931077 C1329.40294108 264.70345573 1329.40486143 269.5676007 1329.40681732 274.43174565 C1329.40730106 275.64061327 1329.4077848 276.8494809 1329.4082832 278.09498087 C1329.41656682 297.636892 1329.44187403 317.17874159 1329.47439799 336.7206259 C1329.50757001 356.81712446 1329.52548952 376.91359188 1329.52867562 397.01011795 C1329.53083204 408.27976006 1329.53945198 419.5493126 1329.56513679 430.81892788 C1329.58698329 440.42637429 1329.59482658 450.03370937 1329.58517001 459.6411778 C1329.58066447 464.5317508 1329.58228902 469.42209484 1329.60193145 474.31263554 C1329.82023566 531.97763749 1329.82023566 531.97763749 1318.1116513 554.12534916 C1317.51868255 555.26230229 1316.9257138 556.39925541 1316.3147763 557.57066166 C1313.13030301 563.3055317 1309.70169815 568.42855704 1305.1116513 573.12534916 C1304.4516513 573.12534916 1303.7916513 573.12534916 1303.1116513 573.12534916 C1302.8847763 573.64097416 1302.6579013 574.15659916 1302.4241513 574.68784916 C1300.62947512 578.02081921 1298.61200115 581.27238588 1296.1116513 584.12534916 C1295.4516513 584.12534916 1294.7916513 584.12534916 1294.1116513 584.12534916 C1294.1116513 584.78534916 1294.1116513 585.44534916 1294.1116513 586.12534916 C1293.4516513 586.12534916 1292.7916513 586.12534916 1292.1116513 586.12534916 C1292.1116513 586.78534916 1292.1116513 587.44534916 1292.1116513 588.12534916 C1286.03230205 593.62571277 1279.28846137 597.71716922 1272.0647763 601.55113041 C1270.1811392 602.55523855 1268.31401768 603.59142206 1266.4710263 604.66831791 C1252.83514494 612.24597198 1235.77645448 615.28948225 1220.28591746 615.25826102 C1219.41528847 615.260482 1218.54465947 615.26270298 1217.64764778 615.26499125 C1214.72223363 615.27123685 1211.79686468 615.27039373 1208.87144458 615.26960099 C1206.74706995 615.27265515 1204.62269591 615.27614421 1202.49832264 615.28002951 C1196.63247047 615.28948183 1190.76662857 615.29270875 1184.90076982 615.29495729 C1178.52973703 615.29848169 1172.1587122 615.30773601 1165.7876845 615.31626552 C1154.61214952 615.33042131 1143.43661593 615.34087873 1132.2610749 615.34884655 C1120.26818818 615.35741132 1108.27530626 615.36811931 1096.28242385 615.38144505 C1095.52527231 615.38228464 1094.76812077 615.38312424 1093.98802524 615.38398927 C1090.90431494 615.387415 1087.82060466 615.39085468 1084.73689439 615.39431242 C1052.55574841 615.43038186 1020.37459846 615.45939665 988.1934434 615.48594638 C984.72869915 615.48880641 981.26395491 615.49166953 977.79921067 615.49453533 C976.93944307 615.49524591 976.07967546 615.4959565 975.1938543 615.49668861 C956.1476933 615.51246106 937.10153405 615.52999818 918.0553749 615.54784738 C910.21462082 615.55519181 902.3738667 615.56249781 894.53311259 615.56981128 C893.23363562 615.57102386 893.23363562 615.57102386 891.90790659 615.57226093 C842.25769099 615.61857717 792.60747384 615.66269744 742.95725238 615.70225632 C741.09883767 615.70373838 739.24042295 615.70522048 737.38200823 615.70670263 C728.9912771 615.71339206 720.60054595 615.72006694 712.2098148 615.72673786 C708.46811663 615.7297127 704.72641846 615.73268854 700.98472029 615.7356645 C699.11193203 615.73715367 697.23914377 615.7386422 695.36635551 615.74013011 C636.1439943 615.78718569 576.92164554 615.84225514 517.69929779 615.90391362 C502.77812128 615.91944672 487.85694473 615.93494802 472.93576801 615.95027268 C472.01703471 615.95121631 471.09830141 615.95215993 470.1517277 615.95313216 C441.8392793 615.98217373 413.5268294 616.00875592 385.21437633 616.03282464 C384.32558306 616.03358052 383.43678979 616.0343364 382.52106338 616.03511519 C363.01064578 616.05168425 343.50022772 616.06765897 323.98980918 616.0830853 C317.00874652 616.08861053 310.0276839 616.09418054 303.04662129 616.09977263 C301.30988297 616.10116343 299.57314465 616.10255193 297.83640633 616.10393812 C270.15431521 616.12605606 242.47223403 616.15408399 214.79015153 616.18505982 C186.9113121 616.21621159 159.03247461 616.2408842 131.15362206 616.25671422 C127.30170936 616.25890169 123.4497967 616.26115854 119.59788406 616.26345646 C118.46525866 616.26412795 118.46525866 616.26412795 117.30975194 616.264813 C105.35097161 616.27208566 93.39220909 616.28610376 81.43343879 616.30292669 C69.67584532 616.31932561 57.91826805 616.32838983 46.16066274 616.33015651 C39.87053722 616.33130847 33.58045822 616.33566572 27.29034541 616.34883948 C21.56884763 616.36075804 15.84742299 616.36343863 10.12591541 616.35873104 C8.06822864 616.35865889 6.01053829 616.36195797 3.95286368 616.36903339 C-14.59201882 616.42953389 -14.59201882 616.42953389 -23.64799418 614.5786808 C-26.60981221 613.97936234 -29.56332142 613.873061 -32.5758487 613.68784916 C-46.66946037 611.91700076 -60.80427195 604.36892926 -72.8883487 597.12534916 C-72.8883487 596.46534916 -72.8883487 595.80534916 -72.8883487 595.12534916 C-73.60837067 594.89210942 -74.32839264 594.65886967 -75.07023346 594.41856205 C-78.40682436 592.8874244 -80.3790747 591.02280195 -82.97819245 588.43394291 C-83.44520066 587.96980488 -83.91220887 587.50566685 -84.39336884 587.02746403 C-85.37772659 586.04514078 -86.35833398 585.05904665 -87.33537018 584.06944096 C-88.80763257 582.58126222 -90.29501042 581.1095947 -91.78483307 579.63902104 C-100.76520773 570.68525294 -106.45205848 561.56534536 -111.6383487 550.00034916 C-112.35957917 548.43220463 -112.35957917 548.43220463 -113.09537995 546.83238041 C-123.86777063 523.09711293 -122.33676633 496.7161322 -122.29518175 471.19684482 C-122.29039863 466.23914338 -122.30300433 461.28147882 -122.31319916 456.32378972 C-122.33028898 446.64469893 -122.33124827 436.96567333 -122.32598626 427.28657139 C-122.32192733 419.41635097 -122.32340842 411.54614966 -122.32873452 403.67593014 C-122.32948294 402.55131859 -122.33023136 401.42670704 -122.33100246 400.26801635 C-122.33253408 397.98272733 -122.33407243 395.69743831 -122.33561743 393.4121493 C-122.3493052 372.0438824 -122.34392953 350.67565225 -122.33243222 329.30738621 C-122.32248876 309.78424465 -122.33546638 290.26119771 -122.35936641 270.73807073 C-122.38377659 250.64563501 -122.39336148 230.55324333 -122.38671368 210.46079308 C-122.38322767 199.1984892 -122.3854135 187.93625818 -122.40296471 176.67396557 C-122.41771007 167.09436579 -122.41829083 157.51489026 -122.4008938 147.93529285 C-122.39240353 143.05420573 -122.39018625 138.1733404 -122.40554535 133.29226506 C-122.41945971 128.81479427 -122.41454346 124.33773392 -122.39530612 119.86028647 C-122.39156663 118.2503377 -122.39440811 116.64035551 -122.40491777 115.0304367 C-122.47132917 104.06830843 -120.87251088 94.68283704 -117.8883487 84.12534916 C-117.28033454 81.58886806 -116.71154786 79.04505703 -116.1383487 76.50034916 C-113.99731563 68.46297898 -110.24796959 62.14161404 -105.8883487 55.12534916 C-104.53684716 52.80187735 -103.21179299 50.46500961 -101.8883487 48.12534916 C-101.2283487 48.12534916 -100.5683487 48.12534916 -99.8883487 48.12534916 C-99.7027237 47.46534916 -99.5170987 46.80534916 -99.3258487 46.12534916 C-95.86512796 38.90297546 -89.23809219 32.88765678 -82.8883487 28.12534916 C-81.8983487 27.79534916 -80.9083487 27.46534916 -79.8883487 27.12534916 C-79.8883487 26.46534916 -79.8883487 25.80534916 -79.8883487 25.12534916 C-78.2383487 24.46534916 -76.5883487 23.80534916 -74.8883487 23.12534916 C-74.8883487 22.46534916 -74.8883487 21.80534916 -74.8883487 21.12534916 C-69.33239173 16.83893519 -62.63901512 13.9405459 -56.3258487 10.93784916 C-55.63048005 10.60510991 -54.93511139 10.27237065 -54.21867096 9.92954838 C-45.75450958 5.98152324 -37.65143386 3.686887 -28.3883487 2.50034916 C-27.50276276 2.37917729 -26.61717682 2.25800541 -25.70475495 2.13316166 C-23.10070695 1.78136663 -20.49685459 1.44256308 -17.8883487 1.12534916 C-17.25133155 1.04361671 -16.61431441 0.96188425 -15.95799371 0.87767505 C-10.61447035 0.22893859 -5.37942183 -0.01656563 0 0 Z " fill="#B40023" transform="translate(642.888348698616,400.8746508359909)"/>
<path d="M0 0 C2.58411899 0.96015889 5.20496326 1.58941682 7.89038086 2.20239258 C15.80312382 4.12093453 22.67145567 6.96402061 29.89038086 10.70239258 C29.89038086 11.36239258 29.89038086 12.02239258 29.89038086 12.70239258 C30.97319336 13.10458008 30.97319336 13.10458008 32.07788086 13.51489258 C34.87160547 14.69446519 37.2940432 16.14458998 39.89038086 17.70239258 C41.09694336 18.07364258 41.09694336 18.07364258 42.32788086 18.45239258 C46.17517454 20.3291212 48.24546172 23.40750548 50.89038086 26.70239258 C53.98297822 30.32299437 57.08504194 33.89705365 60.45288086 37.26489258 C62.92722594 39.73923766 65.15815529 42.33275707 67.40991211 45.00708008 C68.72612328 46.51429815 70.14639218 47.92919433 71.57788086 49.32739258 C76.84924725 54.74122833 79.16199047 61.77647852 81.89038086 68.70239258 C82.55038086 68.70239258 83.21038086 68.70239258 83.89038086 68.70239258 C88.60990031 75.18722846 89.62117141 81.3391316 90.14038086 89.15161133 C90.5922947 93.11702864 91.88290705 96.52622103 93.30834961 100.24536133 C96.1242891 107.84556074 97.32826892 115.30275084 98.20288086 123.32739258 C98.32521088 124.38124649 98.32521088 124.38124649 98.45001221 125.45639038 C102.84304539 163.61300609 102.84304539 163.61300609 97.89038086 172.70239258 C97.50747624 174.69349658 97.16433471 176.6933977 96.89038086 178.70239258 C96.23038086 178.70239258 95.57038086 178.70239258 94.89038086 178.70239258 C94.87620117 179.23864258 94.86202148 179.77489258 94.84741211 180.32739258 C94.01968597 193.92894649 88.21937874 206.71000742 83.32788086 219.26489258 C82.85688965 220.47838379 82.38589844 221.691875 81.90063477 222.94213867 C79.57987207 228.81297491 77.18252575 234.3165915 73.89038086 239.70239258 C73.18751783 241.3541207 72.50382843 243.01541175 71.89038086 244.70239258 C71.23038086 244.70239258 70.57038086 244.70239258 69.89038086 244.70239258 C69.60163086 245.58926758 69.31288086 246.47614258 69.01538086 247.38989258 C68.05889338 250.20621682 67.0223914 252.95322413 65.89038086 255.70239258 C65.23038086 255.70239258 64.57038086 255.70239258 63.89038086 255.70239258 C63.62225586 256.34176758 63.35413086 256.98114258 63.07788086 257.63989258 C61.89038086 259.70239258 61.89038086 259.70239258 58.89038086 260.70239258 C57.84643861 262.48076805 57.84643861 262.48076805 56.89038086 264.70239258 C55.76577442 266.56951025 54.61821192 268.42291767 53.45288086 270.26489258 C52.85604492 271.21493164 52.25920898 272.1649707 51.64428711 273.14379883 C50.17513702 275.28699105 48.88591174 277.05149377 46.89038086 278.70239258 C46.23038086 278.70239258 45.57038086 278.70239258 44.89038086 278.70239258 C44.62225586 279.30051758 44.35413086 279.89864258 44.07788086 280.51489258 C42.89729325 282.68965922 41.62221574 283.9705577 39.89038086 285.70239258 C39.56038086 286.69239258 39.23038086 287.68239258 38.89038086 288.70239258 C36.90437749 290.05648578 34.90220543 291.38696882 32.89038086 292.70239258 C32.02413086 293.56864258 31.15788086 294.43489258 30.26538086 295.32739258 C28.11045785 297.48231558 26.54142148 298.37687227 23.89038086 299.70239258 C23.56038086 300.69239258 23.23038086 301.68239258 22.89038086 302.70239258 C17.9324348 307.92594289 11.91517962 311.83573069 5.89038086 315.70239258 C4.85913086 316.42426758 3.82788086 317.14614258 2.76538086 317.88989258 C0.16026053 319.53225105 -2.40399649 320.66871238 -5.23217773 321.85693359 C-8.23718057 323.21016179 -11.02616857 324.89951977 -13.85961914 326.57739258 C-22.23311371 331.45338063 -30.88894424 335.29182548 -39.91821289 338.79614258 C-42.27417577 339.71825848 -42.27417577 339.71825848 -44.98461914 341.32739258 C-47.93486675 342.62550153 -50.17459781 343.13233122 -53.33227539 343.62426758 C-54.40219727 343.79458496 -55.47211914 343.96490234 -56.57446289 344.14038086 C-57.74106445 344.32584473 -58.90766602 344.51130859 -60.10961914 344.70239258 C-62.63210702 345.1300061 -65.15423003 345.55977629 -67.67602539 345.99145508 C-69.66883836 346.32577689 -71.66198061 346.65805372 -73.65527344 346.98950195 C-75.00216602 347.21515252 -76.34852585 347.44400598 -77.69433594 347.67602539 C-89.29423237 349.67188786 -99.91602828 350.3827472 -111.54711914 348.38989258 C-112.37058838 348.25454102 -113.19405762 348.11918945 -114.04248047 347.97973633 C-119.47119818 347.05959663 -124.77950575 345.88805544 -130.09399414 344.44067383 C-133.03884635 343.71971908 -135.98237344 343.21119243 -138.97460938 342.73095703 C-147.43930137 341.3379573 -154.50228124 338.7837016 -162.10961914 334.70239258 C-163.25172852 334.10297852 -164.39383789 333.50356445 -165.57055664 332.88598633 C-171.88576655 329.47992267 -177.77373288 325.67359134 -183.48461914 321.32739258 C-184.05051758 320.89845703 -184.61641602 320.46952148 -185.19946289 320.02758789 C-186.54522625 318.9710456 -187.8338813 317.8425038 -189.10961914 316.70239258 C-189.10961914 316.04239258 -189.10961914 315.38239258 -189.10961914 314.70239258 C-189.66649414 314.47551758 -190.22336914 314.24864258 -190.79711914 314.01489258 C-195.69810373 311.23325268 -198.71937892 306.93142689 -201.85961914 302.39770508 C-203.6993996 299.90250283 -205.86588869 297.83393651 -208.10961914 295.70239258 C-209.77628581 294.03572591 -211.44295247 292.36905924 -213.10961914 290.70239258 C-214.10541992 289.7994043 -214.10541992 289.7994043 -215.12133789 288.87817383 C-217.32579404 286.46583183 -218.21808268 284.5021691 -219.35961914 281.45239258 C-221.379991 276.31989511 -223.70625348 271.46948077 -226.23461914 266.57739258 C-229.2261988 260.71362199 -231.49331679 255.0990316 -233.10961914 248.70239258 C-233.79563766 246.38945266 -234.48325077 244.07698532 -235.17211914 241.76489258 C-236.8692957 235.7794302 -238.23110227 229.8612582 -239.10961914 223.70239258 C-239.22176758 222.92637695 -239.33391602 222.15036133 -239.44946289 221.35083008 C-242.92798017 191.33074942 -238.67443391 158.60541881 -227.10961914 130.70239258 C-226.53992187 129.20511129 -225.97632848 127.70547549 -225.42211914 126.20239258 C-224.35350413 123.35275256 -223.25501238 120.52182209 -222.10961914 117.70239258 C-221.44961914 117.70239258 -220.78961914 117.70239258 -220.10961914 117.70239258 C-220.0077832 117.01532227 -219.90594727 116.32825195 -219.80102539 115.62036133 C-217.619529 106.41370706 -212.09865691 98.18836489 -206.03540039 91.10083008 C-203.38744713 87.80297348 -201.37271278 84.23594247 -199.33618164 80.53833008 C-198.93141602 79.9324707 -198.52665039 79.32661133 -198.10961914 78.70239258 C-197.44961914 78.70239258 -196.78961914 78.70239258 -196.10961914 78.70239258 C-195.86985352 78.14165039 -195.63008789 77.5809082 -195.38305664 77.00317383 C-193.8395138 74.21438017 -191.92659064 72.20202198 -189.73461914 69.88989258 C-186.13565239 65.97472268 -183.61550713 62.35618455 -181.10961914 57.70239258 C-179.54875555 55.54303835 -177.92865226 53.66503357 -176.10961914 51.70239258 C-175.44961914 51.70239258 -174.78961914 51.70239258 -174.10961914 51.70239258 C-174.10961914 51.04239258 -174.10961914 50.38239258 -174.10961914 49.70239258 C-172.60571289 48.18676758 -172.60571289 48.18676758 -170.54711914 46.45239258 C-167.46017084 43.86208436 -167.46017084 43.86208436 -164.47680664 41.15551758 C-160.94083052 37.85053487 -157.29270034 35.66590849 -152.98461914 33.45239258 C-148.16765954 30.96143059 -143.93663279 28.17110949 -139.73461914 24.76489258 C-132.097081 18.61347063 -123.67481195 14.08116547 -114.66430664 10.22973633 C-112.09881519 9.12742077 -109.73272541 7.98249477 -107.28149414 6.67504883 C-102.79778345 4.41058111 -98.24229197 3.24038781 -93.35961914 2.13989258 C-92.44929932 1.92937256 -91.53897949 1.71885254 -90.60107422 1.50195312 C-81.92562299 -0.44529181 -73.20253568 -1.83033674 -64.39086914 -2.98901367 C-62.29177448 -3.27296655 -60.201581 -3.59075002 -58.10961914 -3.92260742 C-38.95437119 -6.74879155 -18.26073682 -7.13278872 0 0 Z " fill="#DCAA53" transform="translate(1568.109619140625,519.297607421875)"/>
<path d="M0 0 C1.20744873 -0.00315216 2.41489746 -0.00630432 3.65893555 -0.009552 C4.91875244 -0.00752777 6.17856934 -0.00550354 7.4765625 -0.00341797 C8.81746437 -0.00409369 10.15836612 -0.00506594 11.49926758 -0.00631714 C14.28256418 -0.00777743 17.06582831 -0.00569123 19.84912109 -0.00097656 C23.41095512 0.00476453 26.9727145 0.00140376 30.5345459 -0.00454903 C33.95272412 -0.00902826 37.37088216 -0.00589574 40.7890625 -0.00341797 C42.06507324 -0.0054422 43.34108398 -0.00746643 44.65576172 -0.009552 C45.83799316 -0.00639984 47.02022461 -0.00324768 48.23828125 0 C49.79615356 0.00119339 49.79615356 0.00119339 51.38549805 0.00241089 C53.80934673 0.11573262 55.77783581 0.49096568 58.1015625 1.12939453 C59.9960907 1.28311721 61.89082172 1.43486278 63.78662109 1.57202148 C73.24322067 2.31702042 82.27791907 4.14835631 91.4765625 6.44189453 C92.62769531 6.72564941 93.77882813 7.0094043 94.96484375 7.30175781 C105.77486847 10.08629883 116.36169911 13.51953075 125.8515625 19.50439453 C126.48151123 19.89304687 127.11145996 20.28169922 127.76049805 20.68212891 C132.81178793 23.84494658 137.57037916 27.25150564 142.1015625 31.12939453 C143.34873047 32.19480469 143.34873047 32.19480469 144.62109375 33.28173828 C155.18717987 42.5488453 165.01316863 53.42853284 169.3984375 67.09033203 C170.09305418 69.22505382 170.09305418 69.22505382 171.2421875 71.54345703 C178.70898146 87.51160074 179.4826554 104.17252719 179.5390625 121.50439453 C179.5483226 122.7174527 179.5483226 122.7174527 179.55776978 123.95501709 C179.63890714 140.49991096 178.03158101 158.78724359 169.1015625 173.12939453 C168.40576796 175.32069987 168.40576796 175.32069987 168.1015625 177.12939453 C167.4415625 177.12939453 166.7815625 177.12939453 166.1015625 177.12939453 C165.85277344 178.00208984 165.60398437 178.87478516 165.34765625 179.77392578 C159.19005654 196.35504851 142.20131761 208.22954676 127.77734375 217.19580078 C124.84837312 218.91610742 124.84837312 218.91610742 124.1015625 222.12939453 C124.7615625 222.12939453 125.4215625 222.12939453 126.1015625 222.12939453 C127.65112305 224.39477539 127.65112305 224.39477539 129.48828125 227.59423828 C129.82213333 228.17015717 130.15598541 228.74607605 130.49995422 229.33944702 C131.60293676 231.24485978 132.69579478 233.15589403 133.7890625 235.06689453 C135.33157804 237.73793802 136.87903191 240.40611367 138.42578125 243.07470703 C138.81732391 243.75199356 139.20886658 244.42928009 139.61227417 245.12709045 C143.3658445 251.61189991 147.22521892 258.02969516 151.1015625 264.44189453 C155.29393931 271.40375426 159.46327068 278.37490348 163.4765625 285.44189453 C163.84007812 286.07587158 164.20359375 286.70984863 164.578125 287.36303711 C166.2083458 290.26888951 167.37868959 292.88608142 168.1015625 296.12939453 C163.19036027 296.25312637 158.28006765 296.34379278 153.36767578 296.40405273 C151.69726761 296.42917531 150.02696913 296.46328005 148.35693359 296.5065918 C145.9538263 296.56734853 143.55217346 296.59562474 141.1484375 296.61767578 C140.40350037 296.64348221 139.65856323 296.66928864 138.89105225 296.69587708 C135.17641854 296.69787993 133.49831826 296.51098182 130.77709961 293.89379883 C130.22417236 292.98154541 129.67124512 292.06929199 129.1015625 291.12939453 C128.6166333 290.36691406 128.1317041 289.60443359 127.63208008 288.81884766 C127.17470459 288.02414062 126.7173291 287.22943359 126.24609375 286.41064453 C125.7140332 285.4919458 125.18197266 284.57324707 124.63378906 283.62670898 C124.0662793 282.63759521 123.49876953 281.64848145 122.9140625 280.62939453 C121.67636249 278.48713153 120.43805247 276.34522088 119.19921875 274.20361328 C118.54195801 273.06585449 117.88469727 271.9280957 117.20751953 270.75585938 C114.98308681 266.9164006 112.7293931 263.09445978 110.47265625 259.27392578 C109.69617723 257.95753749 108.91972849 256.64113135 108.14331055 255.32470703 C107.0037511 253.3928347 105.86322734 251.46156997 104.71939087 249.53222656 C103.65088412 247.72923743 102.58675835 245.92372678 101.5234375 244.11767578 C100.91081055 243.08167236 100.29818359 242.04566895 99.66699219 240.97827148 C98.25300285 238.40499613 97.11868952 235.8797439 96.1015625 233.12939453 C91.50751734 232.86935424 87.81769471 233.09125973 83.4140625 234.44189453 C75.3413795 236.81555444 67.01332971 237.71175055 58.68945312 238.78857422 C56.38051028 239.09265763 54.07728966 239.42213513 51.7734375 239.76220703 C43.49287105 240.9260618 35.41635189 241.23567547 27.0625 241.18017578 C26.00442139 241.17651001 24.94634277 241.17284424 23.85620117 241.16906738 C21.27128149 241.1595801 18.68644268 241.14627442 16.1015625 241.12939453 C16.10378311 241.80369003 16.10600372 242.47798553 16.10829163 243.17271423 C16.13034179 250.16372144 16.14546797 257.15471884 16.15649414 264.14575195 C16.16153627 266.75806072 16.16836975 269.37036665 16.17700195 271.98266602 C16.18907286 275.72819721 16.19479185 279.47369125 16.19921875 283.21923828 C16.20438004 284.39526108 16.20954132 285.57128387 16.21485901 286.78294373 C16.21493454 287.8639888 16.21501007 288.94503387 16.21508789 290.05883789 C16.2173085 291.01592148 16.21952911 291.97300507 16.22181702 292.95909119 C16.1015625 295.12939453 16.1015625 295.12939453 15.1015625 296.12939453 C12.65325824 296.21783246 10.23335651 296.24468205 7.78515625 296.22705078 C7.05410172 296.22563583 6.32304718 296.22422089 5.56983948 296.22276306 C3.22620618 296.21714861 0.88266711 296.20459375 -1.4609375 296.19189453 C-3.04622258 296.18688139 -4.63150916 296.18231816 -6.21679688 296.17822266 C-10.1107136 296.1671745 -14.00455955 296.14990025 -17.8984375 296.12939453 C-19.13023466 293.66580021 -19.02266202 292.06322984 -19.02148533 289.30740929 C-19.02347638 288.28279229 -19.02546743 287.25817528 -19.02751881 286.20250928 C-19.02460597 285.06828712 -19.02169313 283.93406495 -19.01869202 282.76547241 C-19.01954644 281.56728272 -19.02040087 280.36909303 -19.02128118 279.13459456 C-19.0226479 275.79843043 -19.01950596 272.46232442 -19.01450312 269.1261673 C-19.01019766 265.53244017 -19.01164511 261.93871494 -19.0124054 258.34498596 C-19.01293057 252.11516262 -19.00978445 245.88534973 -19.00416756 239.65552902 C-18.99605168 230.64817709 -18.99343725 221.64083022 -18.99217957 212.63347502 C-18.98998919 198.02078387 -18.98332947 183.40809828 -18.97387695 168.79541016 C-18.96470248 154.59781929 -18.95762182 140.40022994 -18.95336914 126.20263672 C-18.95310642 125.32797246 -18.95284369 124.4533082 -18.95257301 123.55213897 C-18.951268 119.16434737 -18.95000429 114.77655576 -18.94876111 110.38876414 C-18.93838893 73.96897034 -18.92077099 37.54918287 -18.8984375 1.12939453 C-16.97628412 0.96422885 -15.05400895 0.80048002 -13.13168335 0.63733101 C-12.06122961 0.54599172 -10.99077587 0.45465243 -9.88788414 0.36054528 C-6.58546005 0.10519441 -3.31208712 0.00252173 0 0 Z " fill="#DCAA53" transform="translate(1145.8984375,549.87060546875)"/>
<path d="M0 0 C25.08 0 50.16 0 76 0 C87.00844391 33.02533172 87.00844391 33.02533172 89.80615234 42.82324219 C90.6584074 45.79999778 91.51654964 48.77502546 92.375 51.75 C92.81199219 53.28140625 92.81199219 53.28140625 93.2578125 54.84375 C94.99814052 60.85856791 96.95608986 66.72959243 99.13867188 72.59765625 C100.14524582 75.4051074 100.90387629 78.2171142 101.5625 81.125 C102.5909665 85.43900004 103.79846135 89.6007687 105.25 93.7890625 C106.0601347 96.17727209 106.78561063 98.58149433 107.5 101 C108.44458964 104.18799003 109.43525466 107.35012836 110.5 110.5 C111.84665114 114.48384297 113.05543508 118.49959341 114.25 122.53125 C114.96038206 124.86959096 115.71744662 127.18494624 116.5 129.5 C117.84665114 133.48384297 119.05543508 137.49959341 120.25 141.53125 C120.96038206 143.86959096 121.71744662 146.18494624 122.5 148.5 C123.56474534 151.64987164 124.55541036 154.81200997 125.5 158 C127.43264262 164.49888632 129.58211441 170.89229905 131.9375 177.25 C134.69963767 184.80402802 136.98947749 192.49429118 139.22265625 200.21875 C141.87186874 209.43668237 141.87186874 209.43668237 145 218.5 C146.96754993 223.7230944 148.52425019 229.03069515 150.07421875 234.38842773 C152.07452341 241.29877899 154.21386866 248.16047349 156.37939453 255.02050781 C156.99943926 256.99821146 157.60871435 258.97892855 158.21484375 260.9609375 C160.64048834 268.86246748 163.23221099 276.67135727 166.12084961 284.41772461 C167.37653452 287.86022547 168 290.28365884 168 294 C144.57 294 121.14 294 97 294 C84 255 84 255 80 235 C35.945 235.495 35.945 235.495 -9 236 C-9.66 239.3 -10.32 242.6 -11 246 C-11.6065798 248.13653613 -12.24764588 250.26388016 -12.9375 252.375 C-14.25462144 256.52005866 -15.43633436 260.64279979 -16.4375 264.875 C-17.87522591 270.83129306 -19.80781969 276.57764919 -21.81640625 282.359375 C-23.06013968 286.18498409 -24.02435066 290.09740265 -25 294 C-48.43 294 -71.86 294 -96 294 C-97.25800242 290.22599273 -96.53522569 288.88312744 -95.26953125 285.15234375 C-94.68268555 283.40727539 -94.68268555 283.40727539 -94.08398438 281.62695312 C-93.45459961 279.80067383 -93.45459961 279.80067383 -92.8125 277.9375 C-92.41224609 276.74705078 -92.01199219 275.55660156 -91.59960938 274.33007812 C-89.53205391 268.23464314 -87.33753206 262.2266188 -84.90454102 256.26831055 C-83.48314631 252.70388999 -82.26353928 249.08098891 -81.0625 245.4375 C-80.7231543 244.43106445 -80.7231543 244.43106445 -80.37695312 243.40429688 C-78.93701196 239.0687792 -77.62072583 234.70749196 -76.35874939 230.31678772 C-73.00731927 218.69024419 -69.05714165 207.29172664 -65.08398438 195.86572266 C-61.72046689 186.17670359 -58.42337196 176.50396365 -55.68505859 166.61633301 C-54.4446925 162.20858362 -52.83953501 158.17846701 -51 154 C-49.9755045 150.61487989 -49.06868249 147.21075796 -48.16015625 143.79296875 C-47.24649952 140.80589574 -46.23313861 138.02952299 -45.05078125 135.1484375 C-43.07935755 130.3179262 -41.56791825 125.44660914 -40.125 120.4375 C-36.19013699 107.12002793 -31.61942331 94.02276007 -27.06298828 80.90795898 C-24.06081578 72.23542426 -21.2286321 63.56031004 -18.71211243 54.73402405 C-17.38698408 50.14430471 -15.79016764 45.78071505 -13.93798828 41.38330078 C-12.08767825 36.68191439 -10.80354564 31.79693876 -9.4375 26.9375 C-4.14465066 8.28930131 -4.14465066 8.28930131 0 0 Z " fill="#DCAA53" transform="translate(783,552)"/>
<path d="M0 0 C15.4984013 -0.02254742 30.99679453 -0.04097941 46.49520779 -0.05181217 C53.69090295 -0.05697503 60.88658722 -0.06401753 68.08227539 -0.07543945 C74.35184694 -0.0853866 80.62141061 -0.0918535 86.89098984 -0.09408849 C90.21265621 -0.09539555 93.53429466 -0.09899997 96.85595512 -0.10573006 C100.55819947 -0.11293628 104.26039631 -0.11399112 107.96264648 -0.11352539 C109.07178909 -0.11712067 110.1809317 -0.12071594 111.32368469 -0.12442017 C112.82767319 -0.12235817 112.82767319 -0.12235817 114.36204529 -0.12025452 C115.23867042 -0.12117631 116.11529554 -0.1220981 117.01848507 -0.12304783 C119 0 119 0 120 1 C120.10229662 3.6997356 120.13886007 6.3740376 120.13371277 9.0743866 C120.13597833 9.9310762 120.13824388 10.7877658 120.14057809 11.6704157 C120.14694888 14.56438884 120.14608673 17.45831551 120.14526367 20.35229492 C120.14825351 22.41837119 120.15165562 24.48444689 120.15544128 26.55052185 C120.16430975 32.18345739 120.16662077 37.81637776 120.16725707 43.4493196 C120.16820502 48.15277814 120.17188254 52.85623312 120.17542917 57.5596903 C120.18358677 68.66731814 120.18601245 79.77493787 120.18530273 90.88256836 C120.18470361 102.32430441 120.19521934 113.76599305 120.2110464 125.20771712 C120.22415331 135.03462863 120.22948521 144.86152473 120.22884732 154.68844491 C120.22859299 160.55524978 120.23140775 166.42201268 120.24202538 172.28880882 C120.25175777 177.81845869 120.25175046 183.34802696 120.24450874 188.87767982 C120.24346882 190.89878586 120.24579027 192.9198971 120.2518692 194.94099426 C120.33068643 222.98161977 120.33068643 222.98161977 116 231 C115.71125 232.03125 115.4225 233.0625 115.125 234.125 C110.86774423 249.32948491 102.61796944 263.39053936 92 275 C91.23042969 275.85078125 90.46085937 276.7015625 89.66796875 277.578125 C83.44635927 284.13141964 76.56715388 289.16242662 69 294 C68.0203125 294.64066406 67.040625 295.28132813 66.03125 295.94140625 C58.20638099 300.81091479 45.44805199 307.99516084 36 306 C33.85416479 303.73934162 32.48132019 301.10092433 31 298.375 C30.04032762 296.70945566 29.0779658 295.0454588 28.11328125 293.3828125 C27.356521 292.06071777 27.356521 292.06071777 26.58447266 290.71191406 C23.91472017 286.14248253 21.04778423 281.70172056 18.1875 277.25 C17.00619511 275.4012431 15.82520928 273.55228229 14.64453125 271.703125 C13.75241943 270.30803711 13.75241943 270.30803711 12.84228516 268.88476562 C10.93606724 265.89989008 9.03556448 262.91144526 7.13671875 259.921875 C6.50677002 258.93026367 5.87682129 257.93865234 5.2277832 256.91699219 C4.02415811 255.02202412 2.82085213 253.1268533 1.61791992 251.23144531 C1.07111572 250.37131836 0.52431152 249.51119141 -0.0390625 248.625 C-0.54856445 247.82320312 -1.05806641 247.02140625 -1.58300781 246.1953125 C-2.82381007 244.2729669 -4.10043647 242.38386477 -5.3984375 240.5 C-7 238 -7 238 -7 236 C-7.66 236 -8.32 236 -9 236 C-8.83984375 233.734375 -8.83984375 233.734375 -8 231 C-5.62890625 229.078125 -5.62890625 229.078125 -2.5625 227.25 C10.44258891 219.01756248 20.79721793 208.72688314 26 194 C26.86604269 189.67899181 27.1341791 185.5689143 27.15821838 181.16629028 C27.16315636 180.5037118 27.16809434 179.84113333 27.17318195 179.15847671 C27.18846355 176.95217044 27.19689203 174.74589305 27.20532227 172.53955078 C27.21490815 170.95247649 27.22491864 169.36540472 27.23532104 167.77833557 C27.26229925 163.47925734 27.28334706 159.1801682 27.30332303 154.88105249 C27.3252264 150.38470136 27.35259376 145.88838355 27.37937927 141.39205933 C27.42924741 132.88182046 27.474208 124.37156303 27.51740164 115.86128795 C27.56682432 106.17086378 27.62172376 96.48047306 27.67708123 86.79008126 C27.790811 66.86008517 27.89747532 46.93005661 28 27 C18.76 27 9.52 27 0 27 C0 18.09 0 9.18 0 0 Z " fill="#DCAA53" transform="translate(966,552)"/>
<path d="M0 0 C1.1456543 -0.01836914 1.1456543 -0.01836914 2.31445312 -0.03710938 C7.20444271 -0.04965854 11.25392308 0.62444024 15.9375 2.1875 C17.25814453 2.57808594 17.25814453 2.57808594 18.60546875 2.9765625 C32.74867401 7.6690368 47.15280446 18.38633073 56.046875 30.3984375 C56.9375 32.1875 56.9375 32.1875 56.9375 36.1875 C58.4225 36.6825 58.4225 36.6825 59.9375 37.1875 C63.88570131 42.86426705 66.28687205 48.2908437 66.9375 55.1875 C67.40229048 56.53351173 67.90472365 57.86692166 68.4375 59.1875 C72.38094313 69.22885274 71.32834433 79.97573673 69.1875 90.3125 C69.03023437 91.15425781 68.87296875 91.99601563 68.7109375 92.86328125 C67.08910577 100.91006176 63.88367236 107.24346774 59.0625 113.875 C58.42570312 114.76574219 57.78890625 115.65648437 57.1328125 116.57421875 C52.62454981 121.94081615 47.78966233 125.08379766 41.5 127.9375 C40.87029297 128.24042969 40.24058594 128.54335938 39.59179688 128.85546875 C32.42083303 132.1719474 25.34247814 132.35032809 17.5625 132.3125 C16.74394531 132.31636719 15.92539063 132.32023438 15.08203125 132.32421875 C9.064239 132.314239 9.064239 132.314239 7.9375 131.1875 C5.98149285 130.93926056 4.02249981 130.71444704 2.0625 130.5 C-13.18248509 128.1775866 -27.38688389 116.68980416 -36.4140625 104.4765625 C-36.95804688 103.72117187 -37.50203125 102.96578125 -38.0625 102.1875 C-39.06410156 100.98287109 -39.06410156 100.98287109 -40.0859375 99.75390625 C-43.51118679 95.30649758 -45.68511567 90.24902793 -48.0625 85.1875 C-48.45953125 84.3934375 -48.8565625 83.599375 -49.265625 82.78125 C-55.76681494 68.61447789 -55.79017726 48.88598243 -51.0625 34.1875 C-50.02223563 31.62127177 -48.81205458 29.18726796 -47.5 26.75 C-47.15211426 26.10184326 -46.80422852 25.45368652 -46.44580078 24.78588867 C-40.36850185 13.95132662 -31.64091273 7.33575351 -20.13671875 3.01953125 C-18.10712365 2.36313169 -18.10712365 2.36313169 -17.0625 1.1875 C-11.35527488 0.28837291 -5.77091983 0.00489476 0 0 Z " fill="#DCAA53" transform="translate(1672.0625,771.8125)"/>
<path d="M0 0 C4.62 0 9.24 0 14 0 C14.60719994 5.35383911 15.21185333 10.70792532 15.8125 16.0625 C15.9030365 16.86855682 15.993573 17.67461365 16.08685303 18.50509644 C17.07201214 27.29994587 18.03220415 36.09535238 18.86328125 44.90625 C18.96196251 45.9506852 18.96196251 45.9506852 19.06263733 47.01622009 C19.36987398 50.28821432 19.66928025 53.5607415 19.96020508 56.83422852 C20.61724656 63.97876201 21.57181426 70.96748438 23 78 C25.74842668 63.06022817 28.05693239 48.08127289 30.16088867 33.03979492 C31.70339125 22.01366393 33.34814245 11.01238367 35 0 C48.53 0 62.06 0 76 0 C77.63926773 3.27853546 77.75549773 6.96053578 78.25 10.5625 C79.38114769 18.47981289 80.81281579 26.29489896 82.4375 34.125 C85.1030574 47.0134094 87.11628996 59.97699701 89 73 C90.53861176 65.92373724 91.58775255 58.88338893 92.375 51.6875 C92.49657471 50.60678223 92.61814941 49.52606445 92.7434082 48.41259766 C93.16863114 44.60908275 93.58546221 40.80469018 94 37 C94.08461487 36.2247699 94.16922974 35.44953979 94.25640869 34.65081787 C95.5165393 23.10185643 96.76190717 11.55134329 98 0 C106.91 0 115.82 0 125 0 C124.3976591 7.83043167 123.76991148 15.52326374 122.73046875 23.28515625 C122.48083776 25.19913243 122.23124622 27.11311375 121.98168945 29.02709961 C121.85202789 30.01177216 121.72236633 30.9964447 121.58877563 32.01095581 C119.5120349 47.80375653 117.52916515 63.60135618 115.8125 79.4375 C115.73353485 80.1657901 115.6545697 80.8940802 115.57321167 81.6444397 C115.4566069 82.72016739 115.4566069 82.72016739 115.33764648 83.81762695 C115.18483543 85.22608533 115.03192407 86.63453282 114.87890625 88.04296875 C114.80572678 88.71675064 114.7325473 89.39053253 114.65715027 90.08473206 C113.5641557 100.07235711 112.27761645 110.03459172 111 120 C102.75 120 94.5 120 86 120 C83.16694272 106.77906601 80.5277884 93.60501364 78.38427734 80.2565918 C77.3781401 74.05995796 76.16549958 68.00457166 74.65625 61.91015625 C73.65564045 57.47292938 73.04397001 52.98911342 72.4296875 48.484375 C72.25696358 46.06487925 72.25696358 46.06487925 71 45 C68.26085003 60.99528315 65.61713741 76.98683055 63.43261719 93.06933594 C62.18834133 102.11033812 60.59043922 110.98751106 59 120 C43.16 120 27.32 120 11 120 C10.125 105.8125 10.125 105.8125 9.86376953 101.42504883 C9.40294436 94.25595366 8.63902107 87.23508435 7.46826172 80.14233398 C6.67613844 74.82668294 6.35403344 69.48458347 6 64.125 C5.51250167 57.25649668 5.01853568 50.43645738 4 43.625 C2.74415926 35.09121606 2.26079375 26.49798644 1.69726562 17.89501953 C1.30070752 11.89582852 0.83384606 5.95498913 0 0 Z " fill="#B50324" transform="translate(1484,569)"/>
<path d="M0 0 C11.72734677 7.99881532 18.12640817 16.85985769 22.1875 30.3359375 C23.51118303 40.9254017 23.1875 51.66406377 23.1875 62.3359375 C1.0775 62.3359375 -21.0325 62.3359375 -43.8125 62.3359375 C-41.32673791 79.16161044 -41.32673791 79.16161044 -31.8125 92.3359375 C-26.00140818 94.27296811 -19.74613723 93.55309386 -13.8125 92.3359375 C-13.8125 91.6759375 -13.8125 91.0159375 -13.8125 90.3359375 C-12.69875 89.253125 -12.69875 89.253125 -11.5625 88.1484375 C-8.51107402 85.02766093 -6.84303057 82.17138413 -4.8125 78.3359375 C4.14538336 78.76110709 12.50960784 80.07769715 21.1875 82.3359375 C20.03277253 93.88321223 12.7177077 104.19522913 3.859375 111.5078125 C-8.01944046 119.63542308 -20.73854471 121.15949223 -34.8125 119.3359375 C-39.47588611 118.36276589 -43.62525596 116.59401321 -47.8125 114.3359375 C-48.48023438 114.00980469 -49.14796875 113.68367187 -49.8359375 113.34765625 C-59.02040799 107.96580589 -66.33668084 94.2134097 -69.078125 84.13671875 C-74.2534462 61.87564619 -74.40866873 35.38985713 -61.9921875 15.40625 C-48.40046773 -4.26176802 -21.7884987 -12.8915284 0 0 Z " fill="#B50224" transform="translate(1450.8125,571.6640625)"/>
<path d="M0 0 C27.15517241 0 27.15517241 0 39 3 C40.16015625 3.2784375 41.3203125 3.556875 42.515625 3.84375 C50.15554155 5.90475074 55.88104878 9.01921547 62 14 C62.75539063 14.60457031 63.51078125 15.20914063 64.2890625 15.83203125 C67.95078305 18.88790349 70.92668027 21.62299169 73 26 C73.34804687 26.7321875 73.69609375 27.464375 74.0546875 28.21875 C76.48029518 35.35524862 75.96794081 45.11977357 73 52 C66.01870369 64.57971603 55.50077692 70.6959297 42 75 C38.41957115 75.88203291 34.81864453 76.55050058 31.1875 77.1875 C29.83495117 77.45336914 29.83495117 77.45336914 28.45507812 77.72460938 C18.68486427 79.45900649 10.36392177 79 0 79 C0 52.93 0 26.86 0 0 Z " fill="#B50124" transform="translate(1162,633)"/>
<path d="M0 0 C12.54 0 25.08 0 38 0 C38 41.25 38 82.5 38 125 C25.46 125 12.92 125 0 125 C0 83.75 0 42.5 0 0 Z " fill="#B50224" transform="translate(1430,725)"/>
<path d="M0 0 C30.69 0 61.38 0 93 0 C93 3.96 93 7.92 93 12 C83.1 12 73.2 12 63 12 C63 48.96 63 85.92 63 124 C52.44 124 41.88 124 31 124 C31 87.04 31 50.08 31 12 C20.77 12 10.54 12 0 12 C0 8.04 0 4.08 0 0 Z " fill="#B50024" transform="translate(1480,726)"/>
<path d="M0 0 C3.18188605 3.57494256 4.38926282 7.6340517 5.75 12.125 C6.00386475 12.94395752 6.25772949 13.76291504 6.51928711 14.60668945 C9.03765557 22.86452429 11.24357883 31.20583311 13.45288086 39.55053711 C15.43565519 47.01096751 17.58428554 54.38548459 19.95703125 61.73046875 C20.8281249 64.46120052 21.63381346 67.20042502 22.41697693 69.95716858 C23.04678096 72.16391396 23.68671701 74.3675429 24.32861328 76.57080078 C25.65130397 81.11131204 26.96597051 85.65410276 28.27783203 90.19775391 C28.84384402 92.15351291 29.41221442 94.10859087 29.98291016 96.06298828 C30.80995192 98.89699741 31.62844223 101.7333573 32.4453125 104.5703125 C32.70152374 105.44124542 32.95773499 106.31217834 33.22171021 107.20950317 C33.45550385 108.02740326 33.68929749 108.84530334 33.93017578 109.68798828 C34.24089523 110.75885178 34.24089523 110.75885178 34.55789185 111.85134888 C35 114 35 114 35 119 C12.23 119 -10.54 119 -34 119 C-34 111.63763066 -34 111.63763066 -32 108 C-31.3077606 105.46085467 -30.66432569 102.93500036 -30.0625 100.375 C-28.75373453 94.96946866 -27.36779759 89.62029226 -25.7109375 84.30859375 C-24.96937313 81.90054681 -24.28275384 79.47891324 -23.59375 77.05541992 C-22.37516183 72.83696028 -21.09042778 68.63828344 -19.8125 64.4375 C-19.50787842 63.43460938 -19.20325684 62.43171875 -18.8894043 61.3984375 C-16.758568 54.41187395 -14.5520157 47.45236278 -12.3125 40.5 C-9.93665803 33.11067331 -7.74973258 25.71049419 -5.82421875 18.19140625 C-4.21563823 11.96292151 -2.31364712 5.99444935 0 0 Z " fill="#B50425" transform="translate(819,639)"/>
<path d="M0 0 C6.32560765 2.98553753 9.9588407 7.46386989 12.359375 13.9453125 C14.17092596 19.75553083 14 23.44347688 14 30 C0.8 30 -12.4 30 -26 30 C-26 19.65171908 -23.97984297 11.07703044 -16.68359375 3.48828125 C-11.55130502 -1.04861435 -6.57306833 -1.04386197 0 0 Z " fill="#DBA451" transform="translate(1433,592)"/>
<path d="M0 0 C0 3 0 3 -2.1875 5.48046875 C-3.115625 6.37378906 -4.04375 7.26710938 -5 8.1875 C-5.928125 9.08855469 -6.85625 9.98960937 -7.8125 10.91796875 C-8.534375 11.60503906 -9.25625 12.29210937 -10 13 C-10 8.68381834 -7.86729652 7.07210341 -5 4 C-4.34 4 -3.68 4 -3 4 C-3 3.34 -3 2.68 -3 2 C-2.01 1.34 -1.02 0.68 0 0 Z " fill="#D48549" transform="translate(1397,567)"/>
<path d="M0 0 C0.66 0.33 1.32 0.66 2 1 C0.38405168 3.04119788 -1.2856382 5.04072937 -3 7 C-3.66 7 -4.32 7 -5 7 C-4.60196439 4.11424181 -4.20990931 3.17810487 -1.9375 1.25 C-1.298125 0.8375 -0.65875 0.425 0 0 Z " fill="#C03031" transform="translate(1275,765)"/>
</svg>
